<?xml version="1.0" encoding="UTF-8" standalone="no"?>
<!-- Created with Inkscape (http://www.inkscape.org/) -->

<svg
   width="16.933332mm"
   height="16.933332mm"
   viewBox="0 0 16.933333 16.933333"
   version="1.1"
   id="svg1"
   xml:space="preserve"
   sodipodi:docname="favicon.svg"
   inkscape:version="1.3.2 (091e20e, 2023-11-25, custom)"
   inkscape:export-filename="My Final Logo.png"
   inkscape:export-xdpi="96"
   inkscape:export-ydpi="96"
   xmlns:inkscape="http://www.inkscape.org/namespaces/inkscape"
   xmlns:sodipodi="http://sodipodi.sourceforge.net/DTD/sodipodi-0.dtd"
   xmlns="http://www.w3.org/2000/svg"
   xmlns:svg="http://www.w3.org/2000/svg"><sodipodi:namedview
     id="namedview1"
     pagecolor="#505050"
     bordercolor="#eeeeee"
     borderopacity="1"
     inkscape:showpageshadow="0"
     inkscape:pageopacity="0"
     inkscape:pagecheckerboard="0"
     inkscape:deskcolor="#505050"
     inkscape:document-units="mm"
     inkscape:zoom="3.2516654"
     inkscape:cx="6.7657638"
     inkscape:cy="34.597656"
     inkscape:window-width="1366"
     inkscape:window-height="745"
     inkscape:window-x="1352"
     inkscape:window-y="-8"
     inkscape:window-maximized="1"
     inkscape:current-layer="layer1" /><defs
     id="defs1"><marker
       id="DistanceX"
       orient="auto"
       refX="0"
       refY="0"
       style="overflow:visible"><path
         d="M 3,-3 -3,3 M 0,-5 V 5"
         style="stroke:#000000;stroke-width:0.5"
         id="path1" /></marker><pattern
       id="Hatch"
       patternUnits="userSpaceOnUse"
       width="8"
       height="8"
       x="0"
       y="0"><path
         d="M8 4 l-4,4"
         stroke="#000000"
         stroke-width="0.25"
         linecap="square"
         id="path2" /><path
         d="M6 2 l-4,4"
         stroke="#000000"
         stroke-width="0.25"
         linecap="square"
         id="path3" /><path
         d="M4 0 l-4,4"
         stroke="#000000"
         stroke-width="0.25"
         linecap="square"
         id="path4" /></pattern><symbol
       id="*Model_Space" /><symbol
       id="*Paper_Space" /><symbol
       id="*Paper_Space0" /><inkscape:path-effect
       effect="fill_between_many"
       method="originald"
       linkedpaths="#path5,0,1|#path6,0,1|#path7,0,1|#path8,0,1|#path9,0,1|#path10,0,1|#path11,0,1|#path12,0,1|#path23,0,1|#path30,0,1|#path31,0,1|#path32,0,1|#path33,0,1|#path34,0,1|#path35,0,1"
       id="path-effect17"
       is_visible="true"
       lpeversion="0"
       join="true"
       close="true"
       autoreverse="true" /></defs><g
     inkscape:label="Layer 1"
     inkscape:groupmode="layer"
     id="layer1"
     transform="translate(-96.48459,-140.03329)"><path
       inkscape:original-d="M 0,0"
       inkscape:path-effect="#path-effect17"
       d="M 0,0"
       id="path17"
       style="fill:#008080" /><path
       id="path27"
       style="fill:#b6b6b6;fill-opacity:1;stroke:none;stroke-width:0.0192927"
       d="m 104.87475,147.47868 a 1.024578,1.024578 0 0 0 -0.94808,1.02148 1.024585,1.024585 0 0 0 2.04917,0 1.024578,1.024578 0 0 0 -1.10109,-1.02148 z m 0.0765,0.57803 a 0.44351881,0.44351881 0 0 1 0.44353,0.44353 0.44351881,0.44351881 0 0 1 -0.44353,0.44353 0.44351881,0.44351881 0 0 1 -0.4435,-0.44353 0.44351881,0.44351881 0 0 1 0.4435,-0.44353 z" /><g
       id="g25"
       style="mix-blend-mode:normal;fill:#5f97c3;fill-opacity:1;fill-rule:nonzero;stroke:none"
       transform="matrix(0.08125454,0,0,0.08125454,96.42349,136.43366)"><path
         style="color:#000000;fill:#5f97c3;fill-opacity:1;fill-rule:nonzero;stroke:none;-inkscape-stroke:none"
         d="m 77.6875,44.300781 c -9.517133,2.49012 -18.648262,6.271386 -27.138672,11.240235 l 0.06641,0.115234 -0.121093,0.05078 27.107421,65.44336 -65.445312,-27.107422 -0.05078,0.121093 -0.113281,-0.06641 C 7.0233394,102.58807 3.242073,111.7192 0.75195312,121.23633 l 0.12695313,0.0332 -0.0507813,0.12305 L 66.271484,148.5 0.82812495,175.60742 l 0.0507813,0.12305 -0.12695313,0.0332 C 3.2420726,185.28081 7.023339,194.41193 11.992188,202.90234 l 0.113281,-0.0664 0.05078,0.12109 65.443359,-27.10547 -27.105468,65.44336 0.121093,0.0508 -0.06641,0.11328 c 8.490411,4.96884 17.621541,8.75013 27.138672,11.24024 l 0.0332,-0.12891 0.123047,0.0508 22.105469,-53.36523 -0.123047,-0.0508 h 0.132812 v -32.2344 h -0.132812 l 0.03516,-0.1289 C 91.618949,164.55498 85.916016,157.05373 85.916016,148.5 c 0,-8.55373 5.702933,-16.05498 13.945312,-18.3418 l -0.03516,-0.1289 H 99.95898 V 97.794922 h -0.132812 l 0.123047,-0.05078 -22.105469,-53.367188 -0.123047,0.05078 z"
         id="path39" /></g><path
       style="fill:#5f97c3;fill-opacity:1;stroke:none"
       d="m 132.21467,44.300655 -0.0341,0.127124 -0.12195,-0.05064 -22.10563,53.366769 0.12299,0.05116 h -0.13281 v 32.234202 h 0.13229 l -0.0362,0.12868 c 8.24235,2.28679 13.94695,9.78833 13.94695,18.34203 0,8.5537 -5.7046,16.05521 -13.94695,18.34203 l 0.0362,0.12868 h -0.13229 v 32.23421 h 0.13281 l -0.12299,0.0511 22.10563,53.36522 0.12195,-0.0496 0.0341,0.12764 c 9.5171,-2.49008 18.64853,-6.2713 27.13891,-11.24014 l -0.0672,-0.11368 0.12196,-0.0507 -27.10791,-65.44458 65.44355,27.10687 0.0512,-0.12247 0.11524,0.0677 c 4.96885,-8.49038 8.75002,-17.6218 11.24014,-27.13891 l -0.12816,-0.0331 0.0501,-0.12299 -65.44148,-27.10739 65.44148,-27.10739 -0.0501,-0.12299 0.12816,-0.0331 c -2.49012,-9.5171 -6.27129,-18.64853 -11.24014,-27.13891 l -0.11524,0.0677 -0.0512,-0.122473 -65.44458,27.108943 27.10894,-65.444588 -0.12248,-0.05116 0.0677,-0.115238 C 150.8632,50.571963 141.73177,46.79077 132.21467,44.300655 Z"
       id="path23"
       transform="matrix(0.08125454,0,0,0.08125454,96.42349,136.43366)" /></g></svg>
